# xmcd
#
# Track frame offsets:
#	150
#	13305
#	31263
#	57281
#	78260
#	99698
#	123673
#	150253
#	163916
#	190561
#	219233
#
# Disc length: 3171 seconds
#
# Revision: 1
# Processed by: cddbd v1.5.2PL0 Copyright (c) Steve Scherf et al.
# Submitted via: audiograbber 1.83.01
#
DISCID=860c610b
DTITLE=Karl Menrad - Peterchens Mondfahrt
DYEAR=2009
DGENRE=Musiktheater
TTITLE0=Prolog
TTITLE1=Die Bekanntschaft
TTITLE2=Die Bekanntschaft2
TTITLE3=Der Sandmann
TTITLE4=Der Sandmann2
TTITLE5=Der Mondschlitten
TTITLE6=Das Schloss der Nachtfee
TTITLE7=Der Ritt auf dem groﬂen B‰ren
TTITLE8=Der Kampf ums Beinchen
TTITLE9=Der Kampf ums Beinchen 2
TTITLE10=Wieder zu Hause
EXTD=Jumbo
EXTT0=
EXTT1=
EXTT2=
EXTT3=
EXTT4=
EXTT5=
EXTT6=
EXTT7=
EXTT8=
EXTT9=
EXTT10=
PLAYORDER=
